<?xml version="1.0" encoding="UTF-8" standalone="no"?>
<svg
   width="174.33203pt"
   height="25.675812pt"
   viewBox="0 0 174.33203 25.675812"
   version="1.1"
   id="svg20"
   xmlns:xlink="http://www.w3.org/1999/xlink"
   xmlns="http://www.w3.org/2000/svg"
   xmlns:svg="http://www.w3.org/2000/svg">
  <defs
     id="defs5">
    <g
       id="g5">
      <g
         id="glyph-0-0">
        <path
           d="m 2.515625,-3.6875 h 1.21875 c 0.15625,0 0.40625,0 0.40625,-0.296875 0,-0.3125 -0.25,-0.3125 -0.40625,-0.3125 h -1.21875 v -0.46875 c 0,-0.78125 0.671875,-0.78125 0.96875,-0.78125 0,0.046875 0.09375,0.4375 0.4375,0.4375 0.203125,0 0.4375,-0.171875 0.4375,-0.4375 0,-0.609375 -0.796875,-0.609375 -0.953125,-0.609375 -0.796875,0 -1.578125,0.46875 -1.578125,1.328125 v 0.53125 H 0.84375 c -0.171875,0 -0.421875,0 -0.421875,0.3125 0,0.296875 0.25,0.296875 0.40625,0.296875 h 1 v 3.078125 h -1 c -0.15625,0 -0.40625,0 -0.40625,0.296875 C 0.421875,0 0.671875,0 0.828125,0 H 3.53125 c 0.140625,0 0.40625,0 0.40625,-0.296875 0,-0.3125 -0.265625,-0.3125 -0.40625,-0.3125 H 2.515625 Z m 0,0"
           id="path1" />
      </g>
      <g
         id="glyph-0-1">
        <path
           d="m 2.328125,-1.75 c -0.546875,0 -0.96875,-0.46875 -0.96875,-1 0,-0.5625 0.4375,-1.015625 0.96875,-1.015625 0.53125,0 0.953125,0.46875 0.953125,1 0,0.578125 -0.4375,1.015625 -0.953125,1.015625 z m -0.90625,0.34375 c 0.03125,0.015625 0.40625,0.25 0.90625,0.25 0.90625,0 1.640625,-0.71875 1.640625,-1.609375 C 3.96875,-3.0625 3.875,-3.34375 3.703125,-3.625 3.921875,-3.75 4.15625,-3.78125 4.28125,-3.796875 c 0.0625,0.265625 0.296875,0.34375 0.390625,0.34375 0.171875,0 0.40625,-0.125 0.40625,-0.421875 0,-0.21875 -0.1875,-0.53125 -0.734375,-0.53125 -0.109375,0 -0.59375,0.015625 -1.046875,0.34375 C 3.125,-4.171875 2.78125,-4.359375 2.328125,-4.359375 c -0.9375,0 -1.65625,0.75 -1.65625,1.59375 C 0.671875,-2.328125 0.84375,-2 1,-1.8125 c -0.109375,0.15625 -0.203125,0.375 -0.203125,0.671875 0,0.359375 0.140625,0.609375 0.234375,0.71875 -0.734375,0.453125 -0.734375,1.125 -0.734375,1.234375 0,0.859375 1.03125,1.46875 2.3125,1.46875 C 3.890625,2.28125 4.9375,1.671875 4.9375,0.8125 4.9375,0.453125 4.75,-0.046875 4.25,-0.3125 4.109375,-0.390625 3.703125,-0.609375 2.796875,-0.609375 h -0.6875 c -0.078125,0 -0.21875,0 -0.296875,-0.015625 -0.140625,0 -0.203125,0 -0.328125,-0.140625 -0.109375,-0.140625 -0.125,-0.34375 -0.125,-0.359375 0,-0.046875 0.03125,-0.1875 0.0625,-0.28125 z m 1.1875,3.09375 c -1,0 -1.734375,-0.4375 -1.734375,-0.875 0,-0.171875 0.078125,-0.5 0.40625,-0.6875 0.25,-0.171875 0.328125,-0.171875 1.0625,-0.171875 0.890625,0 2.015625,0 2.015625,0.859375 0,0.4375 -0.75,0.875 -1.75,0.875 z m 0,0"
           id="path2" />
      </g>
      <g
         id="glyph-0-2">
        <path
           d="M 2.859375,-2.21875 4,-3.6875 h 0.390625 c 0.140625,0 0.421875,0 0.421875,-0.296875 0,-0.3125 -0.265625,-0.3125 -0.421875,-0.3125 h -1.15625 c -0.15625,0 -0.40625,0 -0.40625,0.296875 0,0.3125 0.21875,0.3125 0.484375,0.3125 l -0.734375,1 -0.75,-1 c 0.25,0 0.46875,0 0.46875,-0.3125 0,-0.296875 -0.25,-0.296875 -0.390625,-0.296875 H 0.734375 c -0.140625,0 -0.40625,0 -0.40625,0.3125 0,0.296875 0.265625,0.296875 0.40625,0.296875 h 0.40625 L 2.3125,-2.21875 1.078125,-0.609375 h -0.40625 c -0.140625,0 -0.40625,0 -0.40625,0.3125 C 0.265625,0 0.53125,0 0.671875,0 H 1.84375 C 2,0 2.25,0 2.25,-0.296875 c 0,-0.3125 -0.21875,-0.3125 -0.53125,-0.3125 l 0.859375,-1.21875 0.890625,1.21875 c -0.28125,0 -0.5,0 -0.5,0.3125 C 2.96875,0 3.21875,0 3.375,0 h 1.15625 c 0.140625,0 0.40625,0 0.40625,-0.296875 0,-0.3125 -0.25,-0.3125 -0.40625,-0.3125 H 4.140625 Z m 0,0"
           id="path3" />
      </g>
      <g
         id="glyph-0-3">
        <path
           d="m 4.28125,-3.6875 h 0.296875 c 0.15625,0 0.40625,0 0.40625,-0.296875 0,-0.3125 -0.234375,-0.3125 -0.40625,-0.3125 h -1.15625 c -0.15625,0 -0.40625,0 -0.40625,0.296875 0,0.3125 0.25,0.3125 0.40625,0.3125 h 0.28125 l -0.71875,2.125 C 2.84375,-1.203125 2.796875,-1.015625 2.71875,-0.703125 2.65625,-0.890625 2.578125,-1.109375 2.5,-1.296875 L 1.578125,-3.6875 h 0.25 c 0.140625,0 0.390625,0 0.390625,-0.296875 0,-0.3125 -0.234375,-0.3125 -0.390625,-0.3125 H 0.65625 c -0.15625,0 -0.390625,0 -0.390625,0.3125 0,0.296875 0.25,0.296875 0.390625,0.296875 h 0.3125 L 2.375,-0.125 c 0.046875,0.09375 0.046875,0.109375 0.046875,0.125 0,0.015625 -0.25,0.84375 -0.375,1.09375 C 1.75,1.640625 1.390625,1.65625 1.25,1.671875 c 0,-0.015625 0.046875,-0.09375 0.046875,-0.21875 0,-0.25 -0.1875,-0.4375 -0.421875,-0.4375 -0.28125,0 -0.453125,0.1875 -0.453125,0.4375 0,0.421875 0.34375,0.8125 0.828125,0.8125 1,0 1.453125,-1.3125 1.484375,-1.421875 z m 0,0"
           id="path4" />
      </g>
      <g
         id="glyph-0-4">
        <path
           d="M 4.46875,-3.5625 C 4.6875,-3.765625 4.6875,-3.78125 4.6875,-3.953125 c 0,-0.34375 -0.21875,-0.34375 -0.40625,-0.34375 H 0.890625 c -0.328125,0 -0.40625,0.078125 -0.40625,0.40625 v 0.46875 c 0,0.1875 0,0.40625 0.34375,0.40625 0.34375,0 0.34375,-0.21875 0.34375,-0.40625 V -3.6875 H 3.65625 L 0.546875,-0.734375 C 0.34375,-0.53125 0.328125,-0.515625 0.328125,-0.34375 0.328125,0 0.546875,0 0.734375,0 h 3.78125 c 0.21875,-0.0625 0.21875,-0.265625 0.21875,-0.40625 v -0.578125 c 0,-0.1875 0,-0.40625 -0.34375,-0.40625 -0.34375,0 -0.34375,0.203125 -0.34375,0.40625 v 0.375 h -2.6875 z m 0,0"
           id="path5" />
      </g>
    </g>
  </defs>
  <path
     fill-rule="nonzero"
     fill="#000000"
     fill-opacity="1"
     d="m 4.253905,14.136721 c 0,-1.17188 -0.95312,-2.125 -2.125,-2.125 -1.17578,0 -2.1289,0.95312 -2.1289,2.125 0,1.17578 0.95312,2.125 2.1289,2.125 1.17188,0 2.125,-0.94922 2.125,-2.125 z m 0,0"
     id="path6" />
  <path
     fill="none"
     stroke-width="0.3985"
     stroke-linecap="butt"
     stroke-linejoin="miter"
     stroke="#000000"
     stroke-opacity="1"
     stroke-miterlimit="10"
     d="M 47.480469,25.476562 H 70.160156 V 2.796875 H 47.480469 Z m 0,0"
     id="path7" />
  <path
     fill-rule="nonzero"
     fill="#f3f3f3"
     fill-opacity="1"
     d="m 56.207035,19.187501 h 5.22656 V 9.085941 h -5.22656 z m 0,0"
     id="path8" />
  <g
     fill="#000000"
     fill-opacity="1"
     id="g8"
     transform="translate(-125.79687,-133.41797)">
    <use
       xlink:href="#glyph-0-0"
       x="182.002"
       y="150.39101"
       id="use8" />
  </g>
  <path
     fill="none"
     stroke-width="0.3985"
     stroke-linecap="butt"
     stroke-linejoin="miter"
     stroke="#000000"
     stroke-opacity="1"
     stroke-miterlimit="10"
     d="m 104.17579,25.476562 h 22.67578 V 2.796875 h -22.67578 z m 0,0"
     id="path9" />
  <path
     fill-rule="nonzero"
     fill="#f3f3f3"
     fill-opacity="1"
     d="m 112.89843,19.187501 h 5.23047 V 9.085941 h -5.23047 z m 0,0"
     id="path10" />
  <g
     fill="#000000"
     fill-opacity="1"
     id="g10"
     transform="translate(-125.79687,-133.41797)">
    <use
       xlink:href="#glyph-0-1"
       x="238.69501"
       y="150.39101"
       id="use10" />
  </g>
  <path
     fill-rule="nonzero"
     fill="#000000"
     fill-opacity="1"
     d="m 174.33203,14.136721 c 0,-1.17188 -0.94922,-2.125 -2.125,-2.125 -1.17188,0 -2.125,0.95312 -2.125,2.125 0,1.17578 0.95312,2.125 2.125,2.125 1.17578,0 2.125,-0.94922 2.125,-2.125 z m 0,0"
     id="path11" />
  <path
     fill="none"
     stroke-width="0.79701"
     stroke-linecap="butt"
     stroke-linejoin="miter"
     stroke="#000000"
     stroke-opacity="1"
     stroke-miterlimit="10"
     d="M 4.453125,14.136718 H 44.691406"
     id="path12" />
  <path
     fill-rule="nonzero"
     fill="#000000"
     fill-opacity="1"
     d="m 47.281245,14.136721 -4.14453,-2.07032 1.55469,2.07032 -1.55469,2.07422"
     id="path13" />
  <path
     fill-rule="nonzero"
     fill="#f3f3f3"
     fill-opacity="1"
     d="m 23.253905,10.101561 h 5.22656 V 9.9999997e-7 h -5.22656 z m 0,0"
     id="path14" />
  <g
     fill="#000000"
     fill-opacity="1"
     id="g14"
     transform="translate(-125.79687,-133.41797)">
    <use
       xlink:href="#glyph-0-2"
       x="149.049"
       y="141.306"
       id="use14" />
  </g>
  <path
     fill="none"
     stroke-width="0.79701"
     stroke-linecap="butt"
     stroke-linejoin="miter"
     stroke="#000000"
     stroke-opacity="1"
     stroke-miterlimit="10"
     d="M 70.359375,14.136718 H 101.38672"
     id="path15" />
  <path
     fill-rule="nonzero"
     fill="#000000"
     fill-opacity="1"
     d="m 103.97656,14.136721 -4.144525,-2.07032 1.554675,2.07032 -1.554675,2.07422"
     id="path16" />
  <path
     fill-rule="nonzero"
     fill="#f3f3f3"
     fill-opacity="1"
     d="m 84.550785,10.101561 h 5.23046 V 9.9999997e-7 h -5.23046 z m 0,0"
     id="path17" />
  <g
     fill="#000000"
     fill-opacity="1"
     id="g17"
     transform="translate(-125.79687,-133.41797)">
    <use
       xlink:href="#glyph-0-3"
       x="210.34801"
       y="141.306"
       id="use17" />
  </g>
  <path
     fill="none"
     stroke-width="0.79701"
     stroke-linecap="butt"
     stroke-linejoin="miter"
     stroke="#000000"
     stroke-opacity="1"
     stroke-miterlimit="10"
     d="m 127.05079,14.136718 h 40.24217"
     id="path18" />
  <path
     fill-rule="nonzero"
     fill="#000000"
     fill-opacity="1"
     d="m 169.88281,14.136721 -4.14453,-2.07032 1.55468,2.07032 -1.55468,2.07422"
     id="path19" />
  <path
     fill-rule="nonzero"
     fill="#f3f3f3"
     fill-opacity="1"
     d="m 145.85156,10.101561 h 5.23047 V 9.9999997e-7 h -5.23047 z m 0,0"
     id="path20" />
  <g
     fill="#000000"
     fill-opacity="1"
     id="g20"
     transform="translate(-125.79687,-133.41797)">
    <use
       xlink:href="#glyph-0-4"
       x="271.64801"
       y="141.306"
       id="use20" />
  </g>
</svg>
